<?xml version="1.0" encoding="UTF-8"?>
<svg width="32px" height="32px" viewBox="0 0 32 32" version="1.1" xmlns="http://www.w3.org/2000/svg" xmlns:xlink="http://www.w3.org/1999/xlink">
    <!-- Generator: Sketch 49.3 (51167) - http://www.bohemiancoding.com/sketch -->
    <title>calendar</title>
    <desc>Created with Sketch.</desc>
    <defs></defs>
    <g id="CONVERSÃO" stroke="none" stroke-width="1" fill="none" fill-rule="evenodd">
        <g id="LP---Conversão" transform="translate(-165.000000, -271.000000)" fill="#F2F2F2" fill-rule="nonzero">
            <path d="M183.666667,294.466667 C183.961067,294.466667 184.2,294.227733 184.2,293.933333 C184.2,293.638933 183.961067,293.4 183.666667,293.4 L182.6,293.4 C182.3056,293.4 182.066667,293.638933 182.066667,293.933333 L182.066667,296.066667 C182.066667,296.361067 182.3056,296.6 182.6,296.6 L183.666667,296.6 C183.961067,296.6 184.2,296.361067 184.2,296.066667 C184.2,295.772267 183.961067,295.533333 183.666667,295.533333 L183.133333,295.533333 L183.133333,294.466667 L183.666667,294.466667 Z M191.666667,296.6 L191.666667,295 C191.666667,294.7056 191.427733,294.466667 191.133333,294.466667 C190.838933,294.466667 190.6,294.7056 190.6,295 L190.6,297.133333 C190.6,297.427733 190.838933,297.666667 191.133333,297.666667 L194.333333,297.666667 C194.627733,297.666667 194.866667,297.427733 194.866667,297.133333 C194.866667,296.838933 194.627733,296.6 194.333333,296.6 L191.666667,296.6 Z M195.933333,297.133333 C195.933333,294.486933 193.779733,292.333333 191.133333,292.333333 C188.486933,292.333333 186.333333,294.486933 186.333333,297.133333 C186.333333,299.779733 188.486933,301.933333 191.133333,301.933333 C193.779733,301.933333 195.933333,299.779733 195.933333,297.133333 Z M197,297.133333 C197,300.368 194.368,303 191.133333,303 C187.898667,303 185.266667,300.368 185.266667,297.133333 C185.266667,293.898667 187.898667,291.266667 191.133333,291.266667 C194.368,291.266667 197,293.898667 197,297.133333 Z M189.533333,283.8 L188.466667,283.8 L188.466667,284.866667 L189.533333,284.866667 L189.533333,283.8 Z M190.6,285.4 C190.6,285.6944 190.361067,285.933333 190.066667,285.933333 L187.933333,285.933333 C187.638933,285.933333 187.4,285.6944 187.4,285.4 L187.4,283.266667 C187.4,282.972267 187.638933,282.733333 187.933333,282.733333 L190.066667,282.733333 C190.361067,282.733333 190.6,282.972267 190.6,283.266667 L190.6,285.4 Z M178.866667,294.466667 L177.8,294.466667 L177.8,295.533333 L178.866667,295.533333 L178.866667,294.466667 Z M179.933333,293.933333 L179.933333,296.066667 C179.933333,296.361067 179.6944,296.6 179.4,296.6 L177.266667,296.6 C176.972267,296.6 176.733333,296.361067 176.733333,296.066667 L176.733333,293.933333 C176.733333,293.638933 176.972267,293.4 177.266667,293.4 L179.4,293.4 C179.6944,293.4 179.933333,293.638933 179.933333,293.933333 Z M173.533333,294.466667 L172.466667,294.466667 L172.466667,295.533333 L173.533333,295.533333 L173.533333,294.466667 Z M174.6,293.933333 L174.6,296.066667 C174.6,296.361067 174.361067,296.6 174.066667,296.6 L171.933333,296.6 C171.638933,296.6 171.4,296.361067 171.4,296.066667 L171.4,293.933333 C171.4,293.638933 171.638933,293.4 171.933333,293.4 L174.066667,293.4 C174.361067,293.4 174.6,293.638933 174.6,293.933333 Z M184.2,283.8 L183.133333,283.8 L183.133333,284.866667 L184.2,284.866667 L184.2,283.8 Z M185.266667,285.4 C185.266667,285.6944 185.027733,285.933333 184.733333,285.933333 L182.6,285.933333 C182.3056,285.933333 182.066667,285.6944 182.066667,285.4 L182.066667,283.266667 C182.066667,282.972267 182.3056,282.733333 182.6,282.733333 L184.733333,282.733333 C185.027733,282.733333 185.266667,282.972267 185.266667,283.266667 L185.266667,285.4 Z M190.066667,290.2 C190.361067,290.2 190.6,289.961067 190.6,289.666667 L190.6,288.6 C190.6,288.3056 190.361067,288.066667 190.066667,288.066667 L187.933333,288.066667 C187.638933,288.066667 187.4,288.3056 187.4,288.6 L187.4,289.666667 C187.4,289.961067 187.638933,290.2 187.933333,290.2 C188.227733,290.2 188.466667,289.961067 188.466667,289.666667 L188.466667,289.133333 L189.533333,289.133333 L189.533333,289.666667 C189.533333,289.961067 189.772267,290.2 190.066667,290.2 Z M184.2,289.133333 L183.133333,289.133333 L183.133333,290.2 L184.2,290.2 L184.2,289.133333 Z M184.733333,291.266667 L182.6,291.266667 C182.3056,291.266667 182.066667,291.027733 182.066667,290.733333 L182.066667,288.6 C182.066667,288.3056 182.3056,288.066667 182.6,288.066667 L184.733333,288.066667 C185.027733,288.066667 185.266667,288.3056 185.266667,288.6 L185.266667,290.733333 C185.266667,291.027733 185.027733,291.266667 184.733333,291.266667 Z M178.866667,289.133333 L177.8,289.133333 L177.8,290.2 L178.866667,290.2 L178.866667,289.133333 Z M179.933333,290.733333 C179.933333,291.027733 179.6944,291.266667 179.4,291.266667 L177.266667,291.266667 C176.972267,291.266667 176.733333,291.027733 176.733333,290.733333 L176.733333,288.6 C176.733333,288.3056 176.972267,288.066667 177.266667,288.066667 L179.4,288.066667 C179.6944,288.066667 179.933333,288.3056 179.933333,288.6 L179.933333,290.733333 Z M178.866667,283.8 L177.8,283.8 L177.8,284.866667 L178.866667,284.866667 L178.866667,283.8 Z M179.933333,285.4 C179.933333,285.6944 179.6944,285.933333 179.4,285.933333 L177.266667,285.933333 C176.972267,285.933333 176.733333,285.6944 176.733333,285.4 L176.733333,283.266667 C176.733333,282.972267 176.972267,282.733333 177.266667,282.733333 L179.4,282.733333 C179.6944,282.733333 179.933333,282.972267 179.933333,283.266667 L179.933333,285.4 Z M173.533333,289.133333 L172.466667,289.133333 L172.466667,290.2 L173.533333,290.2 L173.533333,289.133333 Z M174.6,290.733333 C174.6,291.027733 174.361067,291.266667 174.066667,291.266667 L171.933333,291.266667 C171.638933,291.266667 171.4,291.027733 171.4,290.733333 L171.4,288.6 C171.4,288.3056 171.638933,288.066667 171.933333,288.066667 L174.066667,288.066667 C174.361067,288.066667 174.6,288.3056 174.6,288.6 L174.6,290.733333 Z M173.533333,283.8 L172.466667,283.8 L172.466667,284.866667 L173.533333,284.866667 L173.533333,283.8 Z M174.6,285.4 C174.6,285.6944 174.361067,285.933333 174.066667,285.933333 L171.933333,285.933333 C171.638933,285.933333 171.4,285.6944 171.4,285.4 L171.4,283.266667 C171.4,282.972267 171.638933,282.733333 171.933333,282.733333 L174.066667,282.733333 C174.361067,282.733333 174.6,282.972267 174.6,283.266667 L174.6,285.4 Z M188.466667,274.733333 C188.466667,275.0272 188.706133,275.266667 189,275.266667 C189.293867,275.266667 189.533333,275.0272 189.533333,274.733333 L189.533333,272.6 C189.533333,272.306133 189.293867,272.066667 189,272.066667 C188.706133,272.066667 188.466667,272.306133 188.466667,272.6 L188.466667,274.733333 Z M187.4,274.733333 L187.4,272.6 C187.4,271.717867 188.117867,271 189,271 C189.882133,271 190.6,271.717867 190.6,272.6 L190.6,274.733333 C190.6,275.615467 189.882133,276.333333 189,276.333333 C188.117867,276.333333 187.4,275.615467 187.4,274.733333 Z M183.133333,274.733333 C183.133333,275.0272 183.3728,275.266667 183.666667,275.266667 C183.960533,275.266667 184.2,275.0272 184.2,274.733333 L184.2,272.6 C184.2,272.306133 183.960533,272.066667 183.666667,272.066667 C183.3728,272.066667 183.133333,272.306133 183.133333,272.6 L183.133333,274.733333 Z M182.066667,274.733333 L182.066667,272.6 C182.066667,271.717867 182.784533,271 183.666667,271 C184.5488,271 185.266667,271.717867 185.266667,272.6 L185.266667,274.733333 C185.266667,275.615467 184.5488,276.333333 183.666667,276.333333 C182.784533,276.333333 182.066667,275.615467 182.066667,274.733333 Z M177.8,274.733333 C177.8,275.0272 178.039467,275.266667 178.333333,275.266667 C178.6272,275.266667 178.866667,275.0272 178.866667,274.733333 L178.866667,272.6 C178.866667,272.306133 178.6272,272.066667 178.333333,272.066667 C178.039467,272.066667 177.8,272.306133 177.8,272.6 L177.8,274.733333 Z M176.733333,274.733333 L176.733333,272.6 C176.733333,271.717867 177.4512,271 178.333333,271 C179.215467,271 179.933333,271.717867 179.933333,272.6 L179.933333,274.733333 C179.933333,275.615467 179.215467,276.333333 178.333333,276.333333 C177.4512,276.333333 176.733333,275.615467 176.733333,274.733333 Z M172.466667,274.733333 C172.466667,275.0272 172.706133,275.266667 173,275.266667 C173.293867,275.266667 173.533333,275.0272 173.533333,274.733333 L173.533333,272.6 C173.533333,272.306133 173.293867,272.066667 173,272.066667 C172.706133,272.066667 172.466667,272.306133 172.466667,272.6 L172.466667,274.733333 Z M171.4,274.733333 L171.4,272.6 C171.4,271.717867 172.117867,271 173,271 C173.882133,271 174.6,271.717867 174.6,272.6 L174.6,274.733333 C174.6,275.615467 173.882133,276.333333 173,276.333333 C172.117867,276.333333 171.4,275.615467 171.4,274.733333 Z M194.333333,290.733333 C194.627733,290.733333 194.866667,290.4944 194.866667,290.2 L194.866667,280.066667 C194.866667,279.772267 194.627733,279.533333 194.333333,279.533333 L167.666667,279.533333 C167.372267,279.533333 167.133333,279.772267 167.133333,280.066667 L167.133333,298.733333 C167.133333,299.909867 168.090133,300.866667 169.266667,300.866667 L184.2,300.866667 C184.4944,300.866667 184.733333,300.627733 184.733333,300.333333 C184.733333,300.038933 184.4944,299.8 184.2,299.8 L169.266667,299.8 C168.6784,299.8 168.2,299.3216 168.2,298.733333 L168.2,280.6 L193.8,280.6 L193.8,290.2 C193.8,290.4944 194.038933,290.733333 194.333333,290.733333 Z M185.266667,301.933333 L167.666667,301.933333 C166.889067,301.933333 166.066667,301.110933 166.066667,300.333333 L166.066667,278.466667 L194.333333,278.466667 C194.627733,278.466667 194.866667,278.227733 194.866667,277.933333 C194.866667,277.638933 194.627733,277.4 194.333333,277.4 L165.533333,277.4 C165.238933,277.4 165,277.638933 165,277.933333 L165,300.333333 C165,301.704 166.296,303 167.666667,303 L185.266667,303 C185.561067,303 185.8,302.761067 185.8,302.466667 C185.8,302.172267 185.561067,301.933333 185.266667,301.933333 Z M194.333333,272.066667 L192.2,272.066667 C191.9056,272.066667 191.666667,272.3056 191.666667,272.6 C191.666667,272.8944 191.9056,273.133333 192.2,273.133333 L194.333333,273.133333 C195.110933,273.133333 195.933333,273.955733 195.933333,274.733333 L195.933333,291.266667 C195.933333,291.561067 196.172267,291.8 196.466667,291.8 C196.761067,291.8 197,291.561067 197,291.266667 L197,274.733333 C197,273.362667 195.704,272.066667 194.333333,272.066667 Z M165,275.8 L165,274.733333 C165,273.362667 166.296,272.066667 167.666667,272.066667 L169.8,272.066667 C170.0944,272.066667 170.333333,272.3056 170.333333,272.6 C170.333333,272.8944 170.0944,273.133333 169.8,273.133333 L167.666667,273.133333 C166.889067,273.133333 166.066667,273.955733 166.066667,274.733333 L166.066667,275.8 C166.066667,276.0944 165.827733,276.333333 165.533333,276.333333 C165.238933,276.333333 165,276.0944 165,275.8 Z" id="calendar"></path>
        </g>
    </g>
</svg>