<?xml version="1.0" encoding="UTF-8"?>
<svg width="32px" height="32px" viewBox="0 0 32 32" version="1.1" xmlns="http://www.w3.org/2000/svg" xmlns:xlink="http://www.w3.org/1999/xlink">
    <!-- Generator: Sketch 49.3 (51167) - http://www.bohemiancoding.com/sketch -->
    <title>clapboard</title>
    <desc>Created with Sketch.</desc>
    <defs></defs>
    <g id="CONVERSÃO" stroke="none" stroke-width="1" fill="none" fill-rule="evenodd">
        <g id="LP---Conversão" transform="translate(-165.000000, -582.000000)" fill="#F2F2F2" fill-rule="nonzero">
            <path d="M195.933333,594.791574 L195.933333,591.591574 L194.066667,591.591574 L191.666667,594.791574 L195.933333,594.791574 Z M177.266667,594.791574 L180.733333,594.791574 L183.133333,591.591574 L179.666667,591.591574 L177.266667,594.791574 Z M178.884267,589.120108 L182.657067,588.487041 L180.4688,585.556374 L176.667733,586.185708 L178.884267,589.120108 Z M195.016,583.147308 L191.264533,583.768108 L193.442133,586.677974 L195.522133,586.329174 L195.016,583.147308 Z M186.2832,584.593174 L188.4592,587.513708 L192.258133,586.876374 L190.078933,583.964374 L186.2832,584.593174 Z M181.653333,585.360108 L183.84,588.288641 L187.277333,587.712108 L185.099733,584.789441 L181.653333,585.360108 Z M185.533333,594.791574 L187.933333,591.591574 L184.466667,591.591574 L182.066667,594.791574 L185.533333,594.791574 Z M190.333333,594.791574 L192.733333,591.591574 L189.266667,591.591574 L186.866667,594.791574 L190.333333,594.791574 Z M197,591.058241 L197,611.324908 C197,612.795308 195.803733,613.991574 194.333333,613.991574 L167.666667,613.991574 C166.196267,613.991574 165,612.795308 165,611.324908 L165,586.791574 C165,586.497174 165.238933,586.258241 165.533333,586.258241 L170.866667,586.258241 C171.034667,586.258241 171.192533,586.337174 171.293333,586.471574 L174.493333,590.738241 C174.635733,590.927574 174.635733,591.188908 174.493333,591.378241 L171.293333,595.644908 C171.192533,595.779308 171.034667,595.858241 170.866667,595.858241 L167.666667,595.858241 C167.372267,595.858241 167.133333,595.619308 167.133333,595.324908 C167.133333,595.030508 167.372267,594.791574 167.666667,594.791574 L170.6,594.791574 L173.4,591.058241 L170.6,587.324908 L166.066667,587.324908 L166.066667,611.324908 C166.066667,612.207041 166.784533,612.924908 167.666667,612.924908 L194.333333,612.924908 C195.215467,612.924908 195.933333,612.207041 195.933333,611.324908 L195.933333,595.858241 L174.066667,595.858241 C173.772267,595.858241 173.533333,595.619308 173.533333,595.324908 C173.533333,595.030508 173.772267,594.791574 174.066667,594.791574 L175.933333,594.791574 L178.333333,591.591574 L176.2,591.591574 C175.9056,591.591574 175.666667,591.352641 175.666667,591.058241 C175.666667,590.843841 175.7952,590.661441 175.9776,590.577174 C175.832533,590.502508 175.72,590.369174 175.690667,590.196374 C175.642133,589.905708 175.837867,589.631041 176.128533,589.581974 L177.698133,589.319041 L175.48,586.381974 L173.253867,586.751041 C172.960533,586.799574 172.689067,586.602774 172.640533,586.312108 C172.592533,586.021441 172.7888,585.746774 173.079467,585.698774 L195.3712,582.007041 C195.509333,581.984108 195.654933,582.017708 195.770133,582.100374 C195.885333,582.183574 195.962667,582.308908 195.985067,582.449174 L196.658667,586.683841 C196.705067,586.972908 196.509333,587.245441 196.220267,587.293441 L176.9568,590.524908 L196.466667,590.524908 C196.7616,590.524908 197,590.763841 197,591.058241 Z M185.266667,597.991574 L185.266667,605.991574 L193.266667,605.991574 C193.5616,605.991574 193.8,606.230508 193.8,606.524908 C193.8,606.819308 193.5616,607.058241 193.266667,607.058241 L168.733333,607.058241 C168.438933,607.058241 168.2,606.819308 168.2,606.524908 C168.2,606.230508 168.438933,605.991574 168.733333,605.991574 L184.2,605.991574 L184.2,597.991574 C184.2,597.697174 184.4384,597.458241 184.733333,597.458241 C185.028267,597.458241 185.266667,597.697174 185.266667,597.991574 Z" id="clapboard"></path>
        </g>
    </g>
</svg>