<svg xmlns="http://www.w3.org/2000/svg" viewBox="0 0 32 31.99"><defs><style>.a{fill:#141414;}</style></defs><title>clapboard_blk</title><path class="a" d="M30.93,12.79V9.59H29.07l-2.4,3.2Zm-18.66,0h3.46l2.4-3.2H14.67Zm1.61-5.67,3.78-.63L15.47,3.56l-3.8.63ZM30,1.15l-3.76.62,2.18,2.91,2.08-.35ZM21.28,2.59l2.18,2.92,3.8-.63L25.08,2Zm-4.63.77,2.19,2.93,3.44-.58L20.1,2.79Zm3.88,9.43,2.4-3.2H19.47l-2.4,3.2Zm4.8,0,2.4-3.2H24.27l-2.4,3.2ZM32,9.06V29.32A2.67,2.67,0,0,1,29.33,32H2.67A2.67,2.67,0,0,1,0,29.32V4.79a.53.53,0,0,1,.53-.53H5.87a.54.54,0,0,1,.42.21l3.2,4.27a.51.51,0,0,1,0,.64l-3.2,4.26a.52.52,0,0,1-.42.22H2.67a.54.54,0,1,1,0-1.07H5.6L8.4,9.06,5.6,5.32H1.07v24a1.59,1.59,0,0,0,1.6,1.6H29.33a1.59,1.59,0,0,0,1.6-1.6V13.86H9.07a.54.54,0,1,1,0-1.07h1.86l2.4-3.2H11.2a.53.53,0,0,1-.53-.53A.52.52,0,0,1,11,8.58a.53.53,0,0,1,.15-1l1.57-.26L10.48,4.38l-2.23.37a.53.53,0,1,1-.17-1L30.37,0a.52.52,0,0,1,.4.09A.55.55,0,0,1,31,.45l.67,4.23a.53.53,0,0,1-.44.61L12,8.52H31.47A.54.54,0,0,1,32,9.06ZM20.27,16v8h8a.54.54,0,0,1,0,1.07H3.73a.54.54,0,0,1,0-1.07H19.2V16a.54.54,0,0,1,1.07,0Z" transform="translate(0 0)"/></svg>