<?xml version="1.0" encoding="UTF-8"?>
<svg width="224px" height="83px" viewBox="0 0 224 83" version="1.1" xmlns="http://www.w3.org/2000/svg" xmlns:xlink="http://www.w3.org/1999/xlink">
    <!-- Generator: Sketch 49.3 (51167) - http://www.bohemiancoding.com/sketch -->
    <title>LOGO AGP</title>
    <desc>Created with Sketch.</desc>
    <defs></defs>
    <g id="CONVERSÃO" stroke="none" stroke-width="1" fill="none" fill-rule="evenodd">
        <g id="LP---Conversão" transform="translate(-165.000000, -142.000000)" fill="#FFFFFF" fill-rule="nonzero">
            <g id="LOGO-AGP" transform="translate(165.000000, 142.000000)">
                <polygon id="Shape" points="109.617021 62.25 109.617021 65.1002747 100.66572 65.1002747 100.66572 70.3936421 107.70164 70.3936421 107.70164 73.1380495 100.66572 73.1380495 100.66572 78.5535714 109.599881 78.5535714 109.599881 81.4038462 96.9078014 81.4038462 96.9078014 62.2662873"></polygon>
                <path d="M121.173041,74.3347283 C121.302803,74.6403098 121.428511,74.9458912 121.550163,75.2555471 C121.67587,74.9377424 121.801577,74.6240121 121.931339,74.3143562 C122.061102,74.0047003 122.207084,73.7113421 122.336847,73.4261327 L128.001782,62.8081955 C128.059404,62.693345 128.13165,62.5865138 128.216701,62.4903908 C128.286387,62.4138056 128.372308,62.353931 128.468116,62.3151907 C128.567497,62.2797692 128.671142,62.2578451 128.776301,62.25 C128.893898,62.25 129.027716,62.25 129.181808,62.25 L131.858156,62.25 L131.858156,81.3997717 L128.731695,81.3997717 L128.731695,69.0257597 C128.731695,68.7975922 128.731695,68.5449782 128.731695,68.271992 C128.731695,67.9990059 128.768191,67.717871 128.792522,67.436736 L123.054594,78.2909896 C122.934314,78.5244505 122.75714,78.7234961 122.5396,78.8695572 C122.318295,79.0075599 122.061991,79.0783091 121.801577,79.0732782 L121.314969,79.0732782 C121.053297,79.0781708 120.795731,79.0074618 120.57289,78.8695572 C120.35552,78.7244889 120.179443,78.5251054 120.061951,78.2909896 L114.238868,67.3959919 C114.275363,67.6893501 114.295639,67.9745594 114.311859,68.2516199 C114.328079,68.5286805 114.332134,68.7894433 114.332134,69.0257597 L114.332134,81.4038462 L111.205674,81.4038462 L111.205674,62.2540744 L113.882021,62.2540744 C114.040169,62.2540744 114.178042,62.2540744 114.287529,62.2540744 C114.392743,62.2615218 114.496441,62.2834571 114.595714,62.3192651 C114.693509,62.3587026 114.781937,62.4183989 114.855239,62.4944652 C114.944383,62.5890905 115.019498,62.6961244 115.078268,62.8122699 L120.775644,73.4546537 C120.922567,73.741202 121.055197,74.0349239 121.173041,74.3347283 Z" id="Shape"></path>
                <path d="M145.116667,74.6558903 L145.116667,81.4038462 L141.390071,81.4038462 L141.390071,62.2520391 L147.914808,62.2520391 C149.090704,62.2302745 150.263032,62.3828516 151.390124,62.7043478 C152.28276,62.956307 153.109918,63.3853293 153.817735,63.9634772 C154.445707,64.4889119 154.929698,65.1534361 155.227453,65.8990322 C155.538945,66.6793864 155.694957,67.5086471 155.687422,68.3439437 C155.698478,69.216186 155.533628,70.0822846 155.2019,70.8948014 C154.885842,71.6599715 154.387021,72.3437608 153.745333,72.8914792 C153.040558,73.4809424 152.215276,73.9236206 151.321981,74.1913571 C150.219337,74.5183385 149.068971,74.6738034 147.914808,74.6518155 L145.116667,74.6558903 Z M145.116667,71.8768409 L147.914808,71.8768409 C148.521269,71.8882949 149.125575,71.8043208 149.703574,71.6282749 C150.171803,71.48731 150.601103,71.2478271 150.959969,70.9274002 C151.290027,70.615201 151.540662,70.2345892 151.692511,69.8149655 C151.865091,69.3437569 151.950134,68.8472831 151.94379,68.3480186 C151.949752,67.8740232 151.864576,67.4030184 151.692511,66.9584938 C151.533738,66.5535935 151.276847,66.1905007 150.942933,65.8990322 C150.581781,65.5889891 150.152395,65.3605988 149.686538,65.2307564 C149.10638,65.0651107 148.503139,64.9854072 147.897772,64.9944149 L145.099631,64.9944149 L145.116667,71.8768409 Z" id="Shape"></path>
                <path d="M173.163121,81.4029071 L170.353014,81.4029071 C170.073301,81.413658 169.798032,81.3318426 169.571505,81.1706271 C169.373499,81.0234267 169.222147,80.8241863 169.135024,80.5960399 L167.67593,76.6839568 L159.57401,76.6839568 L158.114917,80.5960399 C158.031123,80.8148144 157.887258,81.0066178 157.69922,81.1502517 C157.47863,81.3217465 157.203279,81.4112411 156.921868,81.4029071 L154.099291,81.4029071 L161.7772,62.25 L165.485211,62.25 L173.163121,81.4029071 Z M160.496856,74.1655532 L166.7323,74.1655532 L164.354517,67.7921178 C164.246436,67.5068617 164.125884,67.1767797 163.992861,66.7896465 C163.859839,66.4025133 163.73513,65.9746292 163.610421,65.5385949 C163.480169,65.9922879 163.35546,66.4120218 163.236294,66.7977967 C163.115742,67.1849299 162.99519,67.5272372 162.878795,67.8165683 L160.496856,74.1655532 Z" id="Shape"></path>
                <path d="M181.094151,78.3505317 C181.72657,78.3611027 182.354693,78.2460375 182.941231,78.0121667 C183.467407,77.7984265 183.938357,77.4708191 184.319407,77.0534661 C184.70837,76.6207741 185.002659,76.113365 185.183824,75.5630491 C185.390398,74.9281097 185.490932,74.2641744 185.481477,73.5973099 L185.481477,62.25 L189.049238,62.25 L189.049238,73.5973099 C189.059574,74.6636492 188.87304,75.7229166 188.498784,76.7231574 C187.799636,78.6047036 186.313856,80.0974774 184.421343,80.8197901 C182.283063,81.5985315 179.93378,81.5985315 177.795501,80.8197901 C176.85421,80.4652521 176.000591,79.9158703 175.291952,79.2085285 C174.59802,78.5011401 174.060645,77.6588658 173.713982,76.7352419 C173.339726,75.735001 173.153192,74.6757337 173.163528,73.6093944 L173.163528,62.25 L176.731289,62.25 L176.731289,73.5852254 C176.721475,74.2507948 176.822023,74.913462 177.028942,75.5469365 C177.209829,76.0992804 177.500989,76.6101847 177.885205,77.0494379 C178.262661,77.4699647 178.732754,77.7993247 179.259302,78.0121667 C179.842065,78.2443457 180.465846,78.3593774 181.094151,78.3505317 Z" id="Shape"></path>
                <polygon id="Shape" points="206.524823 62.25 206.524823 65.1782618 201.086085 65.1782618 201.086085 81.4038462 197.719614 81.4038462 197.719614 65.1782618 192.22695 65.1782618 192.22695 62.25"></polygon>
                <path d="M224,81.4030529 L221.190506,81.4030529 C220.912261,81.4128834 220.638667,81.3311125 220.413323,81.1707712 C220.214314,81.0236505 220.061628,80.8245051 219.972782,80.5961796 L218.514006,76.6840667 L210.413852,76.6840667 L208.955077,80.5961796 C208.873497,80.8161153 208.729251,81.00847 208.539471,81.1503956 C208.318249,81.3206541 208.043429,81.4099963 207.762288,81.4030529 L204.93617,81.4030529 L212.612406,62.25 L216.332076,62.25 L224,81.4030529 Z M211.348965,74.165644 L217.583049,74.165644 L215.205785,67.79216 C215.097728,67.5069017 214.977202,67.1768172 214.848364,66.789681 C214.719527,66.4025449 214.586533,65.9746575 214.461851,65.5386199 C214.337169,65.990958 214.212488,66.4106951 214.091962,66.7978313 C213.971436,67.1849675 213.850911,67.5272773 213.730385,67.8166107 L211.348965,74.165644 Z" id="Shape"></path>
                <path d="M36.5390071,44.6896472 L30.044699,44.6896472 C29.4072056,44.7167121 28.777791,44.5367124 28.2476329,44.1757229 C27.7908875,43.8501602 27.446938,43.3862279 27.2648624,42.8501245 L25.1348577,36.4464647 L11.4001381,36.4464647 L9.27013343,42.8501245 C8.82708181,43.9816484 7.73995373,44.7147951 6.5424438,44.6896472 L0,44.6896472 L13.9794093,7.98076923 L22.5595977,7.98076923 L36.5390071,44.6896472 Z M13.3335887,30.6505407 L23.2014071,30.6505407 L19.8800438,20.5923082 C19.6634332,19.956021 19.4147321,19.2055284 19.1219066,18.3408303 C18.8290811,17.4761323 18.5482895,16.5339378 18.2674979,15.5305618 C18.0027515,16.5543316 17.7299826,17.5006049 17.4652362,18.3856967 C17.2004899,19.2707886 16.9237096,20.0172024 16.6629746,20.6534896 L13.3335887,30.6505407 Z" id="Shape"></path>
                <path d="M56.1204339,38.2879715 C57.1802415,38.300463 58.2382623,38.2001222 59.2754999,37.9887508 C60.1622964,37.7988145 61.0296418,37.5317607 61.8670144,37.1908289 L61.8670144,31.7529915 L58.205986,31.7529915 C57.7421178,31.7799144 57.2858307,31.6295358 56.9349099,31.3340825 C56.6330693,31.0600569 56.4668296,30.6736804 56.4783097,30.2728465 L56.4783097,25.6847958 L69.6415578,25.6847958 L69.6415578,40.845311 C68.7090098,41.5085268 67.7179198,42.090609 66.679827,42.5847806 C65.6229117,43.0804511 64.5213634,43.481089 63.389015,43.7816634 C62.1749448,44.1022026 60.9372335,44.331618 59.6868514,44.4678762 C58.2816659,44.6229281 56.8682802,44.6975301 55.4540445,44.6912943 C52.8756358,44.7172628 50.3178104,44.2438937 47.9304255,43.2989207 C43.3973417,41.5221213 39.8039554,38.0340934 37.9757192,33.6360871 C37.0049442,31.3140184 36.5170526,28.8287248 36.5401025,26.3231333 C36.5131944,23.7987595 36.9822659,21.2925146 37.9222435,18.9383666 C38.7942841,16.7560199 40.1331487,14.7776224 41.8506503,13.1334851 C43.614181,11.4668769 45.7152803,10.1735463 48.0209229,9.33537708 C50.610222,8.40392365 53.3549247,7.94537313 56.1163204,7.98289954 C57.5742493,7.97419515 59.0298512,8.09707275 60.4643058,8.34994359 C61.7438143,8.57710288 62.9994598,8.9162774 64.2158315,9.36330434 C66.3273735,10.1378516 68.2595962,11.3108097 69.9007092,12.8143163 L67.4079191,16.4887465 C67.1863388,16.8108422 66.8959438,17.0829657 66.5564215,17.2866683 C66.2338553,17.4838516 65.8599672,17.5876567 65.4786806,17.585889 C64.914334,17.5701635 64.3663391,17.3985371 63.8990908,17.0911775 C63.2203608,16.6922165 62.582766,16.3570894 61.9821928,16.0658479 C61.3884085,15.7851188 60.7720977,15.5516241 60.1393381,15.3676663 C59.4916978,15.1788402 58.8282624,15.045344 58.1566239,14.9687053 C57.3797617,14.8811789 56.5981021,14.8398756 55.8160338,14.8450275 C54.3244422,14.8224368 52.8445729,15.1037869 51.472162,15.6708766 C50.2108811,16.2016156 49.0868811,16.9974202 48.18135,18.0008084 C47.2436022,19.0578643 46.5318814,20.285184 46.0875708,21.6114048 C45.5763206,23.1265499 45.3261543,24.7130863 45.3471381,26.3071749 C45.3197158,28.033285 45.5979907,29.7511526 46.1698411,31.3859474 C46.6540721,32.7692413 47.4191608,34.0444157 48.4199338,35.1361801 C49.3647598,36.1463323 50.5277267,36.9418816 51.8259243,37.466112 C53.1862653,38.0161365 54.6466376,38.2956145 56.1204339,38.2879715 Z" id="Shape"></path>
                <path d="M98.4964539,8.05706722 L98.4964539,14.5963132 L83.315236,14.5963132 L83.315236,23.1416875 L94.9425287,23.1416875 L94.9425287,29.4286415 L83.315236,29.4286415 L83.315236,38.157131 L98.4964539,38.157131 L98.4964539,44.6923077 L74.6666667,44.6923077 L74.6666667,8.06927489 L98.4964539,8.05706722 Z M97.1775984,5.69691621 L91.236586,5.69691621 C90.9027794,5.69203098 90.5706057,5.64971255 90.2464172,5.57077021 C89.9365194,5.50245332 89.6378029,5.39150771 89.3589631,5.24116292 L87.4772316,4.10991813 C87.3956393,4.07998395 87.3193652,4.03740488 87.2512595,3.98377212 L87.0211788,3.83321077 L86.7910981,3.98377212 C86.7225879,4.03680715 86.6464113,4.07933174 86.5651259,4.10991813 L84.6875031,5.24116292 C84.4071972,5.39147276 84.1071302,5.50240635 83.7959403,5.57077021 C83.4717519,5.64971255 83.1395782,5.69203098 82.8057716,5.69691621 L76.8647591,5.69691621 L83.0605038,0 L90.9818538,0 L97.1775984,5.69691621 Z" id="Shape"></path>
                <path d="M108.630682,8.03393973 C108.863608,8.06274593 109.091068,8.12596519 109.305759,8.22156777 C109.517091,8.3263504 109.710793,8.4639916 109.879776,8.62945481 C110.104706,8.84090012 110.314113,9.06855659 110.506343,9.31062617 L127.791529,31.3650784 C127.726851,30.6594338 127.6743,29.9741836 127.641961,29.3256432 C127.609622,28.6771028 127.593453,28.0367201 127.593453,27.4493628 L127.593453,7.98091442 L135.035461,7.98076923 L135.035461,44.690748 L130.645444,44.690748 C130.080901,44.7064347 129.51928,44.6036525 128.996156,44.3889116 C128.4809,44.1306776 128.035581,43.7499284 127.698554,43.2794588 L110.53464,21.400398 C110.587191,22.0407807 110.623572,22.6648478 110.659953,23.2807573 C110.696335,23.8966667 110.708462,24.4677086 110.708462,25.0061194 L110.708462,44.690748 L103.262411,44.690748 L103.262411,7.98076923 L107.709021,7.98091442 C108.017042,7.97896358 108.324877,7.99667404 108.630682,8.03393973 Z" id="Shape"></path>
                <path d="M164.958721,34.9863746 C165.166163,34.9886085 165.371601,35.0263918 165.56572,35.0980113 C165.784534,35.1905238 165.981473,35.3262584 166.144203,35.4967139 L169.517326,38.9694127 C168.069873,40.8349117 166.15823,42.3063863 163.964709,43.2435037 C161.466313,44.2589299 158.778197,44.7506003 156.073719,44.6868068 C153.505792,44.723219 150.95748,44.2442264 148.586036,43.2793869 C146.456311,42.4043971 144.542304,41.0939537 142.972312,39.4358947 C141.407608,37.7496132 140.205111,35.7727847 139.436236,33.622812 C138.59982,31.2743069 138.1863,28.8015277 138.214089,26.314595 C138.18413,23.78658 138.663088,21.2775314 139.623631,18.9306244 C140.519864,16.7538122 141.861894,14.7795849 143.56709,13.1295029 C145.298255,11.4740124 147.356941,10.1823538 149.616713,9.33385495 C152.100793,8.40964411 154.74038,7.95113358 157.39771,7.98225343 C158.70334,7.9743849 160.006549,8.09324821 161.288209,8.33709867 C162.453732,8.56043546 163.595316,8.89014096 164.697997,9.32189388 C165.72287,9.72278402 166.701884,10.2279204 167.618926,10.8289894 C168.477497,11.3857439 169.271191,12.0328408 169.985816,12.7587095 L167.134141,16.5304353 C166.9425,16.76574 166.722245,16.9772858 166.478256,17.1603853 C166.166426,17.3657901 165.794284,17.4652486 165.419063,17.4434641 C165.121847,17.4437626 164.828748,17.375464 164.56356,17.2441128 C164.270289,17.0989315 163.984752,16.9392441 163.708058,16.7656698 L162.681455,16.1397069 C162.273647,15.8973183 161.84412,15.6918013 161.398202,15.525705 C160.834955,15.3164001 160.254324,15.1549928 159.662754,15.0432749 C158.894462,14.9033489 158.113944,14.8379109 157.332529,14.8479107 C155.880891,14.8291101 154.440603,15.1004482 153.09983,15.6453157 C151.847478,16.1639519 150.726632,16.9451657 149.81633,17.9338682 C148.867921,18.9887872 148.141164,20.2162414 147.677574,21.5461129 C147.14462,23.0754216 146.884179,24.6829971 146.907622,26.2986469 C146.879534,27.9641471 147.139866,29.6222747 147.677574,31.2026878 C148.128624,32.526653 148.83842,33.752148 149.767444,34.8109455 C150.615277,35.7669365 151.668293,36.5279603 152.851327,37.0396926 C154.040651,37.5533868 155.327796,37.8143 156.627758,37.8052014 C157.334174,37.8093047 158.040207,37.7720258 158.742071,37.6935647 C159.347077,37.6236615 159.942596,37.4899849 160.518257,37.2948622 C161.06092,37.1140347 161.583638,36.8802835 162.07853,36.5971328 C162.608518,36.2838949 163.108869,35.9249664 163.573622,35.524623 C163.774371,35.3654242 163.994717,35.2314794 164.229507,35.1259205 C164.459808,35.0296108 164.708316,34.9820551 164.958721,34.9863746 Z" id="Shape"></path>
                <polygon id="Shape" points="182.695035 44.6923077 174.751773 44.6923077 174.751773 7.98076923 182.695035 7.98076923"></polygon>
                <path d="M224,44.6896472 L217.505692,44.6896472 C216.868198,44.7167121 216.238784,44.5367124 215.708626,44.1757229 C215.251813,43.8511705 214.908896,43.3867352 214.729867,42.8501245 L212.595851,36.4464647 L198.865142,36.4464647 L196.731126,42.8501245 C196.538699,43.3615967 196.202489,43.8041749 195.764401,44.1226989 C195.259209,44.509365 194.639468,44.7093481 194.007448,44.6896472 L187.460993,44.6896472 L201.440402,7.98076923 L210.020591,7.98076923 L224,44.6896472 Z M200.798593,30.6505407 L210.666411,30.6505407 L207.345048,20.5923082 L206.586911,18.3530666 C206.298097,17.4856494 206.011957,16.5488933 205.728491,15.5427981 C205.463744,16.5665679 205.190975,17.5128412 204.926229,18.397933 C204.661483,19.2830249 204.37668,20.0294387 204.123967,20.6657259 L200.798593,30.6505407 Z" id="Shape"></path>
                <path d="M78.2495873,82.9999904 C77.4634699,83.0024095 76.7536441,82.546181 76.4524708,81.8449242 C76.1512976,81.1436675 76.3183928,80.336193 76.8755176,79.8005838 L84.2811632,72.6528 L76.8755176,65.5009457 C76.3544203,65.033148 76.1397268,64.3277208 76.3158499,63.6620219 C76.4919729,62.9963231 77.0307469,62.4768109 77.7203383,62.3077455 C78.4099297,62.1386802 79.1400594,62.3470987 79.623657,62.8510555 L88.3991574,71.3258196 C89.1529996,72.0591114 89.1529996,73.2424181 88.3991574,73.9757099 L79.623657,82.4545445 C79.2580097,82.8041977 78.764161,83.0002341 78.2495873,82.9999904 Z" id="Shape"></path>
            </g>
        </g>
    </g>
</svg>