<?xml version="1.0" encoding="utf-8"?>
<!-- Generator: Adobe Illustrator 21.1.0, SVG Export Plug-In . SVG Version: 6.00 Build 0)  -->
<svg version="1.1" id="Layer_1" xmlns="http://www.w3.org/2000/svg" xmlns:xlink="http://www.w3.org/1999/xlink" x="0px" y="0px"
	 viewBox="0 0 119.5 44.1" style="enable-background:new 0 0 119.5 44.1;" xml:space="preserve">
<style type="text/css">
	.st0{fill:#FFFFFF;}
</style>
<title>marca-agencia-em-pauta</title>
<path class="st0" d="M58,33.4v1.5h-4.5v2.8H57v1.5h-3.6v2.9H58v1.5h-6.4V33.4H58z"/>
<path class="st0" d="M65,39.9l0.2,0.5l0.2-0.5c0.1-0.2,0.2-0.3,0.2-0.5l3-5.7c0-0.1,0.1-0.1,0.1-0.2c0,0,0.1-0.1,0.1-0.1h0.2h1.7
	v10.2H69V37c0-0.1,0-0.3,0-0.4s0-0.3,0-0.4L66,42c-0.1,0.1-0.2,0.2-0.3,0.3c-0.1,0.1-0.3,0.1-0.4,0.1h-0.2c-0.1,0-0.3,0-0.4-0.1
	c-0.1-0.1-0.2-0.2-0.3-0.3l-3.1-5.8c0,0.2,0,0.3,0,0.5s0,0.3,0,0.4v6.6h-1.7V33.4h1.7h0.2c0.1,0,0.1,0.1,0.1,0.1
	c0,0.1,0.1,0.1,0.1,0.2l3.1,5.7C64.9,39.6,64.9,39.7,65,39.9z"/>
<path class="st0" d="M77.5,40v3.6h-1.9V33.4h3.3c0.6,0,1.2,0.1,1.8,0.2c0.5,0.1,0.9,0.4,1.2,0.7c0.3,0.3,0.6,0.6,0.7,1
	c0.3,0.9,0.3,1.8,0,2.7c-0.2,0.4-0.4,0.8-0.7,1.1c-0.4,0.3-0.8,0.5-1.2,0.7c-0.6,0.2-1.2,0.3-1.7,0.2L77.5,40L77.5,40z M77.5,38.6
	h1.4c0.3,0,0.6,0,0.9-0.1c0.2-0.1,0.5-0.2,0.6-0.4c0.2-0.2,0.3-0.4,0.4-0.6c0.1-0.3,0.1-0.5,0.1-0.8c0-0.3,0-0.5-0.1-0.7
	c-0.1-0.2-0.2-0.4-0.4-0.6c-0.2-0.2-0.4-0.3-0.6-0.4c-0.3-0.1-0.6-0.1-0.9-0.1h-1.4V38.6L77.5,38.6z"/>
<path class="st0" d="M92.3,43.6h-1.5c-0.1,0-0.3,0-0.4-0.1c-0.1-0.1-0.2-0.2-0.2-0.3l-0.8-2.1h-4.2l-0.8,2.1c0,0.1-0.1,0.2-0.2,0.3
	c-0.1,0.1-0.3,0.1-0.4,0.1h-1.5l4-10.2h1.9L92.3,43.6z M85.7,39.8h3.3l-1.3-3.3c-0.1-0.2-0.1-0.3-0.2-0.5c-0.1-0.2-0.2-0.5-0.2-0.7
	c-0.1,0.2-0.1,0.5-0.2,0.7c-0.1,0.2-0.1,0.4-0.2,0.5L85.7,39.8z"/>
<path class="st0" d="M97,42.1c0.3,0,0.7-0.1,1-0.2c0.3-0.1,0.5-0.3,0.7-0.5c0.2-0.2,0.4-0.5,0.5-0.8c0.1-0.3,0.2-0.7,0.2-1.1v-6.1
	h1.9v6.1c0,0.6-0.1,1.1-0.3,1.7c-0.4,1-1.2,1.8-2.2,2.2c-1.1,0.4-2.4,0.4-3.5,0c-1-0.4-1.8-1.2-2.2-2.2c-0.2-0.5-0.3-1.1-0.3-1.7
	v-6.1h1.9v6.1c0,0.4,0,0.7,0.2,1.1c0.1,0.3,0.2,0.6,0.4,0.8c0.2,0.2,0.5,0.4,0.7,0.5C96.3,42.1,96.7,42.1,97,42.1z"/>
<path class="st0" d="M110.4,33.4V35h-3.1v8.7h-1.9V35h-3.1v-1.6H110.4L110.4,33.4z"/>
<path class="st0" d="M119.5,43.6h-1.5c-0.1,0-0.3,0-0.4-0.1c-0.1-0.1-0.2-0.2-0.2-0.3l-0.8-2.1h-4.2l-0.8,2.1c0,0.1-0.1,0.2-0.2,0.3
	c-0.1,0.1-0.3,0.1-0.4,0.1h-1.5l4-10.2h1.9L119.5,43.6z M112.9,39.8h3.3l-1.3-3.3c-0.1-0.2-0.1-0.3-0.2-0.5s-0.1-0.4-0.2-0.7
	c-0.1,0.2-0.1,0.5-0.2,0.7s-0.1,0.4-0.2,0.5L112.9,39.8z"/>
<path class="st0" d="M19.8,23.9h-3.5c-0.4,0-0.7-0.1-1-0.3c-0.2-0.2-0.4-0.4-0.5-0.7l-1.2-3.4H6.2L5,22.9c-0.2,0.6-0.8,1-1.5,1H0
	L7.6,4.3h4.6L19.8,23.9z M7.2,16.4h5.3l-1.8-5.3l-0.4-1.2c-0.2-0.5-0.3-1-0.5-1.5C9.8,8.9,9.6,9.4,9.5,9.9c-0.2,0.5-0.3,0.9-0.4,1.2
	L7.2,16.4z"/>
<path class="st0" d="M29.8,20.6c0.6,0,1.1,0,1.7-0.2c0.5-0.1,0.9-0.2,1.4-0.4v-3h-1.9c-0.2,0-0.5-0.1-0.7-0.2
	c-0.2-0.1-0.2-0.4-0.2-0.6v-2.5h7v8.2c-0.5,0.4-1,0.7-1.6,1c-0.6,0.3-1.1,0.5-1.7,0.7c-0.7,0.2-1.3,0.3-2,0.4
	C30.9,24,30.2,24,29.4,24c-1.4,0-2.7-0.2-4-0.8c-2.4-1-4.3-2.9-5.2-5.3c-0.5-1.3-0.8-2.6-0.8-4c0-1.4,0.2-2.7,0.7-4
	c0.5-1.2,1.2-2.2,2.1-3.1c0.9-0.9,2-1.6,3.3-2.1c1.4-0.5,2.8-0.8,4.3-0.7c0.8,0,1.5,0.1,2.3,0.2c0.7,0.1,1.4,0.3,2,0.5
	c0.6,0.2,1.1,0.5,1.7,0.8c0.5,0.3,0.9,0.6,1.3,1l-1.3,2c-0.1,0.2-0.3,0.3-0.5,0.4c-0.2,0.1-0.4,0.2-0.6,0.2c-0.3,0-0.6-0.1-0.8-0.3
	c-0.4-0.2-0.7-0.4-1-0.6c-0.3-0.2-0.7-0.3-1-0.4c-0.3-0.1-0.7-0.2-1-0.2c-0.4,0-0.8-0.1-1.2-0.1c-0.8,0-1.6,0.1-2.3,0.5
	c-0.7,0.3-1.3,0.7-1.7,1.3c-0.5,0.6-0.9,1.3-1.1,2c-0.3,0.8-0.4,1.7-0.4,2.6c0,0.9,0.1,1.9,0.4,2.8c0.3,0.7,0.7,1.4,1.2,2
	c0.5,0.6,1.1,1,1.8,1.3C28.3,20.4,29,20.6,29.8,20.6z"/>
<path class="st0" d="M52.3,4.3v3.5h-8v4.6h6.2v3.3h-6.2v4.7h8v3.5H39.7V4.3H52.3z M51.6,3h-3.1c-0.2,0-0.3,0-0.5-0.1
	c-0.2,0-0.3-0.1-0.5-0.2l-1-0.6l-0.2-0.1L46.2,2L46,2.1l-0.1,0.1l-1,0.6c-0.1,0.1-0.3,0.1-0.5,0.2C44.3,3,44.1,3,43.9,3h-3.1l3.3-3
	h4.2L51.6,3z"/>
<path class="st0" d="M57.7,4.3c0.1,0,0.2,0,0.4,0.1c0.1,0.1,0.2,0.1,0.3,0.2c0.1,0.1,0.2,0.2,0.3,0.4L68,16.7c0-0.4-0.1-0.7-0.1-1.1
	s0-0.7,0-1V4.3h4v19.5h-2.4c-0.3,0-0.6,0-0.9-0.2c-0.3-0.1-0.5-0.3-0.7-0.6l-9.2-11.7c0,0.3,0,0.7,0.1,1s0,0.6,0,0.9v10.5h-4V4.3
	h2.4C57.4,4.3,57.5,4.3,57.7,4.3z"/>
<path class="st0" d="M88.3,18.8c0.1,0,0.2,0,0.3,0.1c0.1,0,0.2,0.1,0.3,0.2l1.8,1.9c-0.8,1-1.8,1.8-3,2.3c-1.3,0.6-2.8,0.8-4.2,0.8
	c-1.4,0-2.7-0.2-4-0.8c-1.1-0.5-2.2-1.2-3-2.1c-0.8-0.9-1.5-2-1.9-3.2c-0.5-1.3-0.7-2.6-0.7-4c0-1.4,0.2-2.7,0.8-4
	c1-2.4,2.9-4.3,5.3-5.2c1.3-0.5,2.7-0.8,4.2-0.7c0.7,0,1.4,0.1,2.1,0.2c0.6,0.1,1.2,0.3,1.8,0.5c0.5,0.2,1.1,0.5,1.6,0.8
	c0.5,0.3,0.9,0.7,1.3,1l-1.5,2C89.2,8.9,89.1,9,89,9.1c-0.2,0.1-0.4,0.2-0.6,0.2c-0.2,0-0.3,0-0.5-0.1C87.8,9,87.7,9,87.5,8.9
	L87,8.5c-0.2-0.1-0.4-0.2-0.7-0.3C86,8.1,85.7,8,85.4,7.9c-0.4-0.1-0.8-0.1-1.2-0.1c-0.8,0-1.5,0.1-2.2,0.4
	c-0.7,0.3-1.3,0.7-1.8,1.2c-0.5,0.6-0.9,1.3-1.1,2c-0.3,0.8-0.4,1.7-0.4,2.6c0,0.9,0.1,1.8,0.4,2.7c0.2,0.7,0.6,1.4,1.1,2
	c0.5,0.5,1,0.9,1.6,1.2c0.6,0.3,1.3,0.4,2,0.4c0.4,0,0.8,0,1.1-0.1c0.3,0,0.6-0.1,1-0.2c0.3-0.1,0.6-0.2,0.8-0.4
	c0.3-0.2,0.6-0.4,0.8-0.6c0.1-0.1,0.2-0.2,0.3-0.2C87.9,18.9,88.1,18.8,88.3,18.8z"/>
<path class="st0" d="M97.7,23.9h-4.6V4.3h4.6V23.9z"/>
<path class="st0" d="M119.5,23.9H116c-0.4,0-0.7-0.1-1-0.3c-0.2-0.2-0.4-0.4-0.5-0.7l-1.2-3.4h-7.4l-1.2,3.4c-0.2,0.6-0.8,1-1.5,1
	h-3.5l7.6-19.5h4.6L119.5,23.9z M107,16.4h5.3l-1.8-5.3l-0.4-1.2c-0.2-0.5-0.3-1-0.5-1.5c-0.1,0.5-0.3,1.1-0.4,1.5s-0.3,0.9-0.4,1.2
	L107,16.4z"/>
<path class="st0" d="M41.7,44.1c-0.6,0-1-0.4-1-1c0-0.3,0.1-0.5,0.3-0.7l3.8-3.8L41,34.8c-0.4-0.4-0.3-1.1,0.1-1.4
	c0.4-0.3,0.9-0.3,1.3,0l4.5,4.5c0.4,0.4,0.4,1,0,1.4l-4.5,4.5C42.2,44,42,44.1,41.7,44.1z"/>
</svg>
